#Unknown ASF file
:ROOT_YZX
:FOOT_3DOF
:FULLY-SPECIFIED
:DEGREES
1166
root 10.8047 17.5237 31.9486 -4.7947 32.3804 5.07661
lfemur -3.2757 6.4973 -24.9223
ltibia 31.4643
lfoot -16.758 0 -3.39863
ltoes -14.1992
rfemur -26.4437 -14.9188 16.4353
rtibia 48.1841
rfoot -13.6855 0 -9.795
rtoes -3.22143
lowerback 10.6996 0.225464 -8.44742
upperback 2.74804 -0.556682 0.769846
thorax -3.02019 -0.223849 5.65049
lowerneck -10.6218 -8.40411 -20.3779
upperneck 26.3162 -11.1418 13.548
head 12.444 -5.54771 7.01357
lclavicle 7.21091e-014 -1.98785e-014
lhumerus -23.836 12.1844 82.1826
lradius 22.7861
lwrist -7.39604
lhand -13.9404 28.182
lfingers 7.12502
lthumb 12.1865 57.807
rclavicle 7.21091e-014 -1.98785e-014
rhumerus -35.9165 -9.45415 -80.1049
rradius 23.5394
rwrist 7.35771
rhand -19.3527 12.9913
rfingers 7.12502
rthumb 6.96469 -16.8742
1167
root 11.0015 17.5966 32.3456 -4.43239 31.3257 5.67375
lfemur 0.32027 6.38921 -25.4744
ltibia 27.2049
lfoot -16.4464 0 -1.86213
ltoes -15.3246
rfemur -26.2782 -14.081 16.4962
rtibia 37.2047
rfoot -11.9149 0 -11.0396
rtoes -3.99086
lowerback 10.6568 -0.236099 -8.73983
upperback 2.12548 -1.23383 0.716825
thorax -3.54031 -0.516211 5.85414
lowerneck -10.0402 -8.17232 -20.1081
upperneck 26.379 -11.0751 13.7943
head 12.3259 -5.49318 7.10066
lclavicle 5.9039e-014 -2.74323e-014
lhumerus -25.9198 1.87875 83.5292
lradius 29.9801
lwrist 2.37652
lhand -14.9776 26.3294
lfingers 7.12502
lthumb 11.1864 56.0112
rclavicle 5.9039e-014 -2.74323e-014
rhumerus -37.4803 -8.27881 -80.3804
rradius 24.4563
rwrist 6.40648
rhand -19.0363 13.1304
rfingers 7.12502
rthumb 7.27014 -16.7247
1168
root 11.1841 17.6254 32.7525 -4.03087 30.175 6.33162
lfemur 3.97186 6.61637 -25.9668
ltibia 22.7491
lfoot -16.1981 0 -1.1136
ltoes -15.4036
rfemur -25.4314 -10.6496 15.584
rtibia 26.8318
rfoot -13.9554 0 -14.2234
rtoes -4.97714
lowerback 9.54969 -0.559168 -9.31221
upperback 2.06419 -1.61311 0.87384
thorax -2.90533 -0.730568 6.36185
lowerneck -9.05565 -8.009 -19.6184
upperneck 25.7267 -10.9795 13.4219
head 11.7818 -5.46885 6.87011
lclavicle 1.2424e-014 -9.54166e-015
lhumerus -25.2915 -1.91979 83.6614
lradius 32.8648
lwrist 5.45366
lhand -14.9784 31.6354
lfingers 7.12502
lthumb 11.1856 61.3172
rclavicle 1.2424e-014 -9.54166e-015
rhumerus -38.2389 -7.37864 -80.4319
rradius 25.5418
rwrist 4.89298
rhand -19.7643 13.3497
rfingers 7.12502
rthumb 6.56735 -16.5285
1169
root 11.3849 17.5887 33.1943 -4.00274 29.6366 7.47464
lfemur 7.92864 6.784 -26.8778
ltibia 18.7561
lfoot -16.233 0 -0.957563
ltoes -17.2437
rfemur -24.8768 -7.55149 13.4227
rtibia 20.6431
rfoot -17.4802 0 -18.7703
rtoes -6.39944
lowerback 9.24117 -1.15029 -9.76198
upperback 1.80281 -2.43313 0.636534
thorax -2.85488 -1.12932 6.44419
lowerneck -9.4058 -8.03408 -19.3405
upperneck 26.4133 -11.0121 13.1652
head 12.0934 -5.48245 6.73588
lclavicle 4.07509e-014 -1.74931e-014
lhumerus -25.9927 -4.59286 82.9758
lradius 36.8338
lwrist 7.73836
lhand -13.9851 37.4843
lfingers 7.12502
lthumb 12.1434 67.1118
rclavicle 4.07509e-014 -1.74931e-014
rhumerus -39.2557 -7.03232 -80.4575
rradius 26.6205
rwrist 3.83145
rhand -19.7427 13.2537
rfingers 7.12502
rthumb 6.58817 -16.6238
1170
root 11.4927 17.5079 33.6188 -3.3519 28.5632 7.08969
lfemur 9.39267 6.83415 -25.8109
ltibia 17.7537
lfoot -16.8617 0 -1.19727
ltoes -15.1695
rfemur -25.7163 -3.61708 13.2954
rtibia 19.5201
rfoot -19.3604 0 -21.9687
rtoes -4.87859
lowerback 9.07532 -1.66251 -9.48535
upperback 1.37614 -3.07733 1.15215
thorax -3.08199 -1.42566 6.90453
lowerneck -10.5697 -7.88207 -18.5961
upperneck 27.4574 -10.5032 12.0284
head 12.5268 -5.27401 6.24764
lclavicle -2.34566e-014 1.59028e-015
lhumerus -25.826 -5.17603 82.0665
lradius 39.304
lwrist 8.04898
lhand -12.5066 41.2226
lfingers 7.12502
lthumb 13.5688 70.7605
rclavicle -2.34566e-014 1.59028e-015
rhumerus -39.6053 -6.68982 -80.0937
rradius 27.4695
rwrist 2.64065
rhand -20.3004 13.9711
rfingers 7.12502
rthumb 6.04979 -15.9226
1171
root 11.5945 17.4048 34.0281 -2.91068 27.0878 6.89521
lfemur 10.3587 6.7768 -25.2406
ltibia 18.1555
lfoot -18.0324 0 -0.519766
ltoes -18.0027
rfemur -27.0219 -5.69558 15.0509
rtibia 22.2199
rfoot -16.1332 0 -20.5269
rtoes -6.75969
lowerback 9.13113 -1.9875 -9.27418
upperback 1.32259 -3.48012 1.64104
thorax -3.07531 -1.62671 7.35009
lowerneck -11.3194 -7.86359 -18.3327
upperneck 27.174 -10.2496 11.5459
head 12.4717 -5.16074 6.01643
lclavicle -9.14409e-015 -6.36111e-015
lhumerus -24.7291 -3.85573 80.9426
lradius 40.0643
lwrist 7.13467
lhand -14.298 33.6551
lfingers 7.12502
lthumb 11.8418 63.3003
rclavicle -9.14409e-015 -6.36111e-015
rhumerus -39.068 -7.92775 -79.0864
rradius 27.3705
rwrist 2.80897
rhand -20.5449 14.0199
rfingers 7.12502
rthumb 5.81375 -15.8803
1172
root 11.7391 17.3499 34.496 -3.59031 27.3347 7.89908
lfemur 13.0651 4.96545 -26.3096
ltibia 17.7378
lfoot -17.659 0 0.963701
ltoes -20.8281
rfemur -26.7511 -9.264 14.8071
rtibia 25.2417
rfoot -11.4808 0 -19.9233
rtoes -12.2099
lowerback 10.109 -2.58986 -9.71259
upperback 1.12946 -4.43571 1.56096
thorax -3.61294 -2.05778 7.67946
lowerneck -11.3745 -7.96489 -18.3899
upperneck 27.1423 -10.4384 11.7038
head 12.5193 -5.23554 6.05447
lclavicle -8.33902e-014 1.59028e-015
lhumerus -25.206 -2.36847 80.2948
lradius 40.8527
lwrist 6.88339
lhand -14.3402 34.5718
lfingers 7.12502
lthumb 11.8011 64.2193
rclavicle -8.33902e-014 1.59028e-015
rhumerus -39.4748 -9.92825 -77.5887
rradius 27.1694
rwrist 3.58657
rhand -21.5077 13.5006
rfingers 7.12502
rthumb 4.8841 -16.4231
1173
root 11.818 17.3997 34.9677 -3.38802 25.8115 6.2101
lfemur 13.8709 3.74981 -24.4389
ltibia 19.2501
lfoot -16.5149 0 2.75528
ltoes -27.0449
rfemur -26.5016 -8.71049 17.3533
rtibia 26.2293
rfoot -8.63103 0 -20.927
rtoes -10.9907
lowerback 10.5103 -2.74846 -8.34222
upperback 1.02791 -4.48069 2.71015
thorax -3.94506 -2.07378 8.17794
lowerneck -12.1105 -8.44152 -18.571
upperneck 27.4132 -10.7525 10.9166
head 12.8122 -5.46141 5.69485
lclavicle -1.74931e-014 -1.43125e-014
lhumerus -25.7451 0.288546 80.5936
lradius 41.0882
lwrist 6.93004
lhand -14.5954 36.1065
lfingers 7.12502
lthumb 11.555 65.768
rclavicle -1.74931e-014 -1.43125e-014
rhumerus -39.0948 -12.1042 -75.4641
rradius 26.1929
rwrist 4.20738
rhand -21.7544 12.4191
rfingers 7.12502
rthumb 4.64596 -17.51
1174
root 11.9022 17.4596 35.5386 -3.17266 23.4549 6.06255
lfemur 14.8955 3.70411 -23.9742
ltibia 21.0261
lfoot -14.032 0 3.42145
ltoes -31.9496
rfemur -26.0413 -8.66043 18.5912
rtibia 28.6497
rfoot -8.98074 0 -17.8413
rtoes -6.91373
lowerback 9.95536 -2.56403 -8.44921
upperback 0.904908 -4.1973 2.9797
thorax -3.79404 -1.93566 8.46487
lowerneck -11.3814 -8.44953 -18.2528
upperneck 26.7777 -10.9283 10.8582
head 12.4055 -5.53067 5.58331
lclavicle -3.50855e-014 -1.74931e-014
lhumerus -27.5859 2.54294 80.5061
lradius 41.5285
lwrist 7.5469
lhand -14.808 38.5013
lfingers 7.12502
lthumb 11.35 68.1741
rclavicle -3.50855e-014 -1.74931e-014
rhumerus -39.4927 -14.4801 -73.9783
rradius 25.0673
rwrist 4.55405
rhand -22.2305 11.5715
rfingers 7.12502
rthumb 4.18616 -18.3671
1175
root 11.9986 17.5251 36.0825 -2.99273 21.9772 6.66501
lfemur 13.9977 3.36251 -24.2327
ltibia 25.1814
lfoot -9.63946 0 2.94111
ltoes -34.946
rfemur -25.1092 -10.2699 18.6826
rtibia 29.8326
rfoot -7.71709 0 -13.7071
rtoes -2.14157
lowerback 10.2877 -2.5704 -8.35947
upperback 0.202552 -4.25711 2.74573
thorax -4.74008 -1.88798 8.22757
lowerneck -8.72442 -8.13418 -18.7134
upperneck 25.4803 -10.9867 11.5901
head 11.4414 -5.60037 5.9748
lclavicle -1.61016e-014 0
lhumerus -30.5564 2.86511 80.5623
lradius 41.9586
lwrist 9.09395
lhand -14.3344 39.6879
lfingers 7.12502
lthumb 11.8067 69.3351
rclavicle -1.61016e-014 0
rhumerus -41.0529 -14.822 -73.5377
rradius 25.3116
rwrist 3.71433
rhand -22.2254 10.2457
rfingers 7.12502
rthumb 4.19112 -19.6928
1176
root 12.01 17.5731 36.6529 -3.03312 19.9748 5.75157
lfemur 11.8646 5.00714 -21.3923
ltibia 32.071
lfoot -4.41757 0 -0.117383
ltoes -34.1758
rfemur -23.4529 -9.56597 20.5461
rtibia 30.2446
rfoot -6.16016 0 -11.95
rtoes 6.41083
lowerback 9.68103 -2.41427 -7.83034
upperback 0.628161 -3.91332 3.08916
thorax -4.02621 -1.78157 8.19147
lowerneck -8.09073 -8.73954 -19.3951
upperneck 24.0869 -11.9486 12.3212
head 11.0655 -6.03573 6.18718
lclavicle 1.36167e-014 -3.18055e-015
lhumerus -31.253 1.91128 81.0229
lradius 41.141
lwrist 9.81689
lhand -14.0937 35.0914
lfingers 7.12502
lthumb 12.0387 64.7252
rclavicle 1.36167e-014 -3.18055e-015
rhumerus -40.7399 -14.2311 -74.4299
rradius 25.4206
rwrist 2.96464
rhand -22.122 10.7246
rfingers 7.12502
rthumb 4.291 -19.2119
1177
root 12.027 17.5826 37.208 -3.36722 17.9021 5.33145
lfemur 9.31518 7.53732 -18.5747
ltibia 39.2586
lfoot 3.86199 0 -2.69332
ltoes -28.6358
rfemur -22.3822 -8.80993 21.7066
rtibia 32.3268
rfoot -6.84456 0 -9.12201
rtoes 16.78
lowerback 8.79672 -2.18594 -7.45917
upperback 1.62314 -3.48588 3.10401
thorax -2.58756 -1.68296 7.84894
lowerneck -7.30955 -8.70564 -19.8175
upperneck 21.5584 -12.1469 13.8989
head 10.156 -6.0243 6.77893
lclavicle 3.37934e-015 1.43125e-014
lhumerus -31.2157 0.639896 81.4883
lradius 40.5093
lwrist 7.81934
lhand -15.0352 28.3199
lfingers 7.12502
lthumb 11.1308 58.0047
rclavicle 3.37934e-015 1.43125e-014
rhumerus -39.4004 -13.7759 -75.6798
rradius 25.7038
rwrist 3.98855
rhand -20.4587 12.048
rfingers 7.12502
rthumb 5.89698 -17.85
1178
root 12.0231 17.5004 37.7016 -3.68599 15.5758 4.74882
lfemur 5.38759 8.99681 -16.1165
ltibia 48.6076
lfoot 8.45313 0 -6.47982
ltoes -24.0178
rfemur -21.3932 -7.33982 23.1495
rtibia 34.4309
rfoot -6.62717 0 -13.057
rtoes 14.0675
lowerback 9.02782 -1.92647 -6.92727
upperback 1.92665 -3.09904 3.11827
thorax -2.49904 -1.50687 7.52592
lowerneck -10.0475 -9.84174 -19.0886
upperneck 22.7828 -13.1814 12.5347
head 11.1879 -6.46274 5.89365
lclavicle -6.49032e-014 1.74931e-014
lhumerus -33.4197 -0.503251 81.9715
lradius 42.2069
lwrist 5.11312
lhand -12.4209 29.3605
lfingers 7.12502
lthumb 13.6514 58.8928
rclavicle -6.49032e-014 1.74931e-014
rhumerus -38.9225 -11.6222 -77.382
rradius 26.7269
rwrist 4.0927
rhand -18.9643 12.5271
rfingers 7.12502
rthumb 7.33959 -17.3256
1179
root 12.0312 17.4148 38.1574 -4.44602 13.463 2.07246
lfemur 1.18102 9.44264 -11.799
ltibia 57.7603
lfoot 8.05259 0 -8.49081
ltoes -26.2341
rfemur -19.5538 -6.90072 26.6836
rtibia 35.7778
rfoot -10.7136 0 -7.75999
rtoes 10.4418
lowerback 11.4502 -1.81157 -3.9027
upperback 1.20298 -2.69056 3.69852
thorax -4.79578 -1.22061 6.52689
lowerneck -8.61461 -9.74091 -19.7682
upperneck 21.9813 -13.2371 12.999
head 10.7122 -6.55659 6.20432
lclavicle -5.09883e-014 1.27222e-014
lhumerus -36.8182 -1.47807 83.0462
lradius 43.0149
lwrist 3.37808
lhand -10.1552 31.4101
lfingers 7.12502
lthumb 15.8342 60.7826
rclavicle -5.09883e-014 1.27222e-014
rhumerus -39.81 -8.98162 -78.3131
rradius 27.9567
rwrist 4.05005
rhand -18.3373 12.5871
rfingers 7.12502
rthumb 7.9448 -17.2436
1180
root 12.0067 17.3116 38.5722 -5.02888 10.8965 0.565593
lfemur -2.19593 8.95672 -9.08249
ltibia 64.7613
lfoot 4.76923 0 -9.14384
ltoes -21.4662
rfemur -18.1241 -4.99806 29.0694
rtibia 37.2586
rfoot -12.5609 0 -6.72669
rtoes 11.0014
lowerback 11.5738 -1.42002 -2.63819
upperback 1.50304 -2.00304 3.91529
thorax -4.6799 -0.911133 5.92859
lowerneck -3.38854 -8.88134 -20.9334
upperneck 17.3958 -13.0115 15.6912
head 8.35882 -6.51665 7.52961
lclavicle 3.26007e-014 -1.59028e-015
lhumerus -38.2969 -0.973212 83.6854
lradius 42.6505
lwrist 1.94277
lhand -10.3472 29.4199
lfingers 7.12502
lthumb 15.6493 58.807
rclavicle 3.26007e-014 -1.59028e-015
rhumerus -38.6925 -8.0418 -78.9253
rradius 28.3128
rwrist 4.80612
rhand -18.7057 13.4225
rfingers 7.12502
rthumb 7.5892 -16.4213
